<mxfile host="app.diagrams.net" modified="2021-09-30T10:57:25.783Z" agent="5.0 (Windows NT 10.0; Win64; x64) AppleWebKit/537.36 (KHTML, like Gecko) Chrome/94.0.4606.61 Safari/537.36 Edg/94.0.992.31" etag="vonnUBGwiROlvYeIh-pk" version="15.3.8" type="github">
  <diagram id="w_jvkWKqiARLVaVE1-wl" name="Page-1">
    <mxGraphModel dx="1422" dy="794" grid="1" gridSize="10" guides="1" tooltips="1" connect="1" arrows="1" fold="1" page="1" pageScale="1" pageWidth="850" pageHeight="1100" math="0" shadow="0">
      <root>
        <mxCell id="0" />
        <mxCell id="1" parent="0" />
        <mxCell id="Y331xLOhTJkWruJnCSie-24" value="" style="rounded=1;whiteSpace=wrap;html=1;fillColor=#f5f5f5;strokeColor=#666666;fontColor=#333333;" vertex="1" parent="1">
          <mxGeometry x="270" y="130" width="600" height="390" as="geometry" />
        </mxCell>
        <mxCell id="Y331xLOhTJkWruJnCSie-14" value="" style="rounded=0;whiteSpace=wrap;html=1;" vertex="1" parent="1">
          <mxGeometry x="620" y="290" width="130" height="80" as="geometry" />
        </mxCell>
        <mxCell id="Y331xLOhTJkWruJnCSie-1" value="" style="ellipse;whiteSpace=wrap;html=1;fillColor=#d5e8d4;strokeColor=#82b366;" vertex="1" parent="1">
          <mxGeometry x="10" y="232.5" width="210" height="190" as="geometry" />
        </mxCell>
        <mxCell id="Y331xLOhTJkWruJnCSie-3" value="" style="rounded=0;whiteSpace=wrap;html=1;" vertex="1" parent="1">
          <mxGeometry x="55" y="302.5" width="125" height="70" as="geometry" />
        </mxCell>
        <mxCell id="Y331xLOhTJkWruJnCSie-4" value="&lt;font style=&quot;font-size: 16px&quot; face=&quot;Comic Sans MS&quot;&gt;Topic 1&lt;/font&gt;" style="rounded=0;whiteSpace=wrap;html=1;" vertex="1" parent="1">
          <mxGeometry x="67.5" y="332.5" width="95" height="20" as="geometry" />
        </mxCell>
        <mxCell id="Y331xLOhTJkWruJnCSie-5" value="&lt;font style=&quot;font-size: 16px&quot; face=&quot;Comic Sans MS&quot;&gt;Kafka broker&lt;/font&gt;" style="text;html=1;strokeColor=none;fillColor=none;align=center;verticalAlign=middle;whiteSpace=wrap;rounded=0;" vertex="1" parent="1">
          <mxGeometry x="40" y="312.5" width="150" height="5" as="geometry" />
        </mxCell>
        <mxCell id="Y331xLOhTJkWruJnCSie-6" value="&lt;font style=&quot;font-size: 16px&quot; face=&quot;Comic Sans MS&quot;&gt;Azure/On Prem Kafka Cluster&lt;/font&gt;" style="text;html=1;strokeColor=none;fillColor=none;align=center;verticalAlign=middle;whiteSpace=wrap;rounded=0;" vertex="1" parent="1">
          <mxGeometry x="40" y="262.5" width="150" height="20" as="geometry" />
        </mxCell>
        <mxCell id="Y331xLOhTJkWruJnCSie-12" value="" style="rounded=0;whiteSpace=wrap;html=1;fillColor=#dae8fc;strokeColor=#6c8ebf;" vertex="1" parent="1">
          <mxGeometry x="550" y="187.5" width="300" height="285" as="geometry" />
        </mxCell>
        <mxCell id="Y331xLOhTJkWruJnCSie-7" value="" style="ellipse;whiteSpace=wrap;html=1;fillColor=#dae8fc;strokeColor=#6c8ebf;" vertex="1" parent="1">
          <mxGeometry x="585" y="220" width="210" height="190" as="geometry" />
        </mxCell>
        <mxCell id="Y331xLOhTJkWruJnCSie-8" value="&lt;font style=&quot;font-size: 16px&quot; face=&quot;Comic Sans MS&quot; color=&quot;#0368ff&quot;&gt;GCP Kafka Cluster&lt;/font&gt;" style="text;html=1;strokeColor=none;fillColor=none;align=center;verticalAlign=middle;whiteSpace=wrap;rounded=0;" vertex="1" parent="1">
          <mxGeometry x="610" y="250" width="150" height="20" as="geometry" />
        </mxCell>
        <mxCell id="Y331xLOhTJkWruJnCSie-17" value="" style="rounded=0;whiteSpace=wrap;html=1;fillColor=#dae8fc;strokeColor=#6c8ebf;" vertex="1" parent="1">
          <mxGeometry x="625" y="295" width="125" height="75" as="geometry" />
        </mxCell>
        <mxCell id="Y331xLOhTJkWruJnCSie-19" value="&lt;font style=&quot;font-size: 16px&quot; face=&quot;Comic Sans MS&quot; color=&quot;#0f0fff&quot;&gt;Kafka broker&lt;/font&gt;" style="text;html=1;strokeColor=none;fillColor=none;align=center;verticalAlign=middle;whiteSpace=wrap;rounded=0;" vertex="1" parent="1">
          <mxGeometry x="610" y="305" width="150" height="5" as="geometry" />
        </mxCell>
        <mxCell id="Y331xLOhTJkWruJnCSie-10" value="&lt;font style=&quot;font-size: 16px&quot; face=&quot;Comic Sans MS&quot; color=&quot;#1271ff&quot;&gt;Topic 1-replica&lt;/font&gt;" style="rounded=0;whiteSpace=wrap;html=1;fillColor=#dae8fc;strokeColor=#6c8ebf;" vertex="1" parent="1">
          <mxGeometry x="640" y="325" width="92.5" height="40" as="geometry" />
        </mxCell>
        <mxCell id="Y331xLOhTJkWruJnCSie-21" value="&lt;font face=&quot;Comic Sans MS&quot; style=&quot;font-size: 16px&quot;&gt;Origin&lt;/font&gt;" style="text;html=1;strokeColor=none;fillColor=none;align=center;verticalAlign=middle;whiteSpace=wrap;rounded=0;" vertex="1" parent="1">
          <mxGeometry x="95" y="180" width="40" height="20" as="geometry" />
        </mxCell>
        <mxCell id="Y331xLOhTJkWruJnCSie-22" value="&lt;font style=&quot;font-size: 16px&quot; face=&quot;Comic Sans MS&quot;&gt;Destination&lt;/font&gt;" style="text;html=1;strokeColor=none;fillColor=none;align=center;verticalAlign=middle;whiteSpace=wrap;rounded=0;" vertex="1" parent="1">
          <mxGeometry x="660" y="140" width="40" height="20" as="geometry" />
        </mxCell>
        <mxCell id="Y331xLOhTJkWruJnCSie-25" value="" style="shape=process;whiteSpace=wrap;html=1;backgroundOutline=1;fillColor=#ffe6cc;strokeColor=#d79b00;" vertex="1" parent="1">
          <mxGeometry x="280" y="276.25" width="130" height="107.5" as="geometry" />
        </mxCell>
        <mxCell id="Y331xLOhTJkWruJnCSie-26" value="&lt;font face=&quot;Comic Sans MS&quot; style=&quot;font-size: 16px&quot;&gt;Replicator&lt;/font&gt;" style="text;html=1;strokeColor=none;fillColor=none;align=center;verticalAlign=middle;whiteSpace=wrap;rounded=0;" vertex="1" parent="1">
          <mxGeometry x="325" y="242.5" width="40" height="20" as="geometry" />
        </mxCell>
        <mxCell id="Y331xLOhTJkWruJnCSie-28" value="&lt;font face=&quot;Comic Sans MS&quot; style=&quot;font-size: 16px&quot;&gt;Consumer&lt;/font&gt;" style="rounded=1;whiteSpace=wrap;html=1;fillColor=#ffe6cc;strokeColor=#d79b00;" vertex="1" parent="1">
          <mxGeometry x="300" y="303.76" width="90" height="45" as="geometry" />
        </mxCell>
        <mxCell id="Y331xLOhTJkWruJnCSie-29" value="&lt;font face=&quot;Comic Sans MS&quot; style=&quot;font-size: 16px&quot;&gt;Producer&lt;/font&gt;" style="rounded=1;whiteSpace=wrap;html=1;fillColor=#ffe6cc;strokeColor=#d79b00;" vertex="1" parent="1">
          <mxGeometry x="440" y="310" width="80" height="41.87" as="geometry" />
        </mxCell>
        <mxCell id="Y331xLOhTJkWruJnCSie-31" value="" style="endArrow=classic;html=1;exitX=1.019;exitY=0.45;exitDx=0;exitDy=0;exitPerimeter=0;entryX=-0.031;entryY=0.388;entryDx=0;entryDy=0;entryPerimeter=0;" edge="1" parent="1" source="Y331xLOhTJkWruJnCSie-1" target="Y331xLOhTJkWruJnCSie-25">
          <mxGeometry width="50" height="50" relative="1" as="geometry">
            <mxPoint x="370" y="390" as="sourcePoint" />
            <mxPoint x="420" y="340" as="targetPoint" />
          </mxGeometry>
        </mxCell>
        <mxCell id="Y331xLOhTJkWruJnCSie-32" value="" style="endArrow=classic;html=1;entryX=-0.031;entryY=0.388;entryDx=0;entryDy=0;entryPerimeter=0;" edge="1" parent="1">
          <mxGeometry width="50" height="50" relative="1" as="geometry">
            <mxPoint x="410" y="332.5" as="sourcePoint" />
            <mxPoint x="440.98" y="332.00000000000006" as="targetPoint" />
          </mxGeometry>
        </mxCell>
        <mxCell id="Y331xLOhTJkWruJnCSie-35" value="" style="endArrow=classic;html=1;exitX=1;exitY=0.5;exitDx=0;exitDy=0;entryX=0;entryY=0.584;entryDx=0;entryDy=0;entryPerimeter=0;" edge="1" parent="1" source="Y331xLOhTJkWruJnCSie-29" target="Y331xLOhTJkWruJnCSie-7">
          <mxGeometry width="50" height="50" relative="1" as="geometry">
            <mxPoint x="370" y="390" as="sourcePoint" />
            <mxPoint x="420" y="340" as="targetPoint" />
          </mxGeometry>
        </mxCell>
      </root>
    </mxGraphModel>
  </diagram>
</mxfile>
